<svg xmlns="http://www.w3.org/2000/svg" viewBox="0 0 458.02 175.67"><defs><style>.cls-1{fill:none;}.cls-2{fill:#faa424;}.cls-3{fill:#7d7973;}.cls-4{fill:#545352;}</style></defs><title>H_PWDMGR</title><g id="Layer_2" data-name="Layer 2"><g id="Object"><path class="cls-1" d="M53.3,28A23.8,23.8,0,0,0,42.35,48.14V70.27H99.79V48C97.46,28.09,74.85,14.34,53.3,28Z"/><path class="cls-2" d="M77.72,136.3V124a12.48,12.48,0,0,0,6-10.64c0-9.52-10.6-16.55-20.64-9.94a6.5,6.5,0,0,0-1.86,1.87C56.28,112.83,59,120.52,64.63,124V136.3Z"/><path class="cls-3" d="M15.62,175.67h111.1a15.62,15.62,0,0,0,15.12-11.77H.5A15.64,15.64,0,0,0,15.62,175.67Z"/><path class="cls-2" d="M0,160a15.89,15.89,0,0,0,.5,3.86H141.84a15.89,15.89,0,0,0,.5-3.86v-2.49H0Z"/><path class="cls-3" d="M122.5,51.33C122.5,14.39,83.26-13.58,44.28,7A46.38,46.38,0,0,0,19.84,48.08V70.27H9.76A9.76,9.76,0,0,0,0,80v77.51H142.34V80a9.76,9.76,0,0,0-9.76-9.76h-10.4V51.33ZM77.72,124V136.3H64.63V124c-5.62-3.46-8.35-11.15-3.43-18.71a6.5,6.5,0,0,1,1.86-1.87c10-6.61,20.64.42,20.64,9.94A12.48,12.48,0,0,1,77.72,124ZM99.79,70.27H42.35V48.14A23.8,23.8,0,0,1,53.3,28C74.85,14.34,97.46,28.09,99.79,48Z"/><path class="cls-4" d="M267.16,24.78a19.12,19.12,0,0,1,11.76,18.4,20.09,20.09,0,0,1-3.05,11.1,19.38,19.38,0,0,1-8.71,7.26,32.52,32.52,0,0,1-13.33,2.52H242.2V80H228.83V22.23h25A32.19,32.19,0,0,1,267.16,24.78Zm-4.91,25.79a9.05,9.05,0,0,0,3.14-7.39,9.14,9.14,0,0,0-3.14-7.46c-2.09-1.74-5.14-2.6-9.16-2.6H242.2V53.17h10.89Q259.12,53.17,262.25,50.57Z"/><path class="cls-4" d="M383.49,22.23,364.59,80H350.23l-12.7-39.12L324.41,80H310.13l-19-57.76H305l13,40.59,13.62-40.59h12.38l13.2,40.92L370.7,22.23Z"/><path class="cls-4" d="M399.35,22.23h26.24a36.79,36.79,0,0,1,16.63,3.59,26.9,26.9,0,0,1,11.22,10.1,28.44,28.44,0,0,1,4,15.19,28.43,28.43,0,0,1-4,15.18A27,27,0,0,1,442.22,76.4,36.92,36.92,0,0,1,425.59,80H399.35ZM424.93,69q8.67,0,13.82-4.83t5.16-13.07q0-8.25-5.16-13.08T424.93,33.2H412.72V69Z"/><path class="cls-4" d="M281.39,160.45l-.08-34.65-17,28.55h-6l-16.91-27.81v33.91H228.83V102.69h11.06l21.62,35.9,21.29-35.9h11l.17,57.76Z"/><path class="cls-4" d="M361.28,130.67h12.21V154.1a34.79,34.79,0,0,1-10.89,5.45,42.48,42.48,0,0,1-12.46,1.89A33.81,33.81,0,0,1,334,157.61,28.62,28.62,0,0,1,322.7,147a31,31,0,0,1,0-30.77,28.5,28.5,0,0,1,11.35-10.65,34.41,34.41,0,0,1,16.34-3.84,35.87,35.87,0,0,1,13.78,2.56,27.29,27.29,0,0,1,10.39,7.43L366,119.61a19.82,19.82,0,0,0-14.93-6.52,20.38,20.38,0,0,0-9.82,2.31,16.51,16.51,0,0,0-6.68,6.52,20.46,20.46,0,0,0,0,19.23,16.89,16.89,0,0,0,6.64,6.56,19.74,19.74,0,0,0,9.69,2.35,21.68,21.68,0,0,0,10.4-2.48Z"/><path class="cls-4" d="M443.66,160.45l-11.14-16.09H420.23v16.09H406.86V102.69h25a32.18,32.18,0,0,1,13.33,2.56A19.09,19.09,0,0,1,457,123.65a18.85,18.85,0,0,1-11.88,18.24L458,160.45Zm-3.38-44.26c-2.09-1.74-5.14-2.6-9.16-2.6H420.23v20.13h10.89q6,0,9.16-2.64a10.4,10.4,0,0,0,0-14.89Z"/></g></g></svg>