<svg xmlns="http://www.w3.org/2000/svg" viewBox="0 0 478.68 590.77"><defs><style>.cls-1{fill:none;}.cls-2{fill:#faa424;}.cls-3{fill:#7d7973;}</style></defs><title>PWD</title><g id="Layer_2" data-name="Layer 2"><g id="Object"><path class="cls-1" d="M179.25,94.25a80.1,80.1,0,0,0-36.83,67.65v74.43H335.57v-75C327.75,94.47,251.72,48.23,179.25,94.25Z"/><path class="cls-2" d="M261.36,458.37V416.93a42,42,0,0,0,20.13-35.79c0-32-35.67-55.65-69.42-33.41a21.69,21.69,0,0,0-6.26,6.29c-16.54,25.44-7.36,51.27,11.53,62.91v41.44Z"/><path class="cls-3" d="M52.54,590.77h373.6A52.5,52.5,0,0,0,477,551.18H1.69A52.56,52.56,0,0,0,52.54,590.77Z"/><path class="cls-2" d="M0,538.19a53,53,0,0,0,1.69,13H477a52.5,52.5,0,0,0,1.69-13v-8.36H0Z"/><path class="cls-3" d="M412,172.64c0-124.26-132-218.3-263-149.26C97.9,50.25,66.74,104,66.74,161.68v74.65H32.83A32.82,32.82,0,0,0,0,269.16V529.83H478.68V269.15a32.82,32.82,0,0,0-32.83-32.82h-35V172.64ZM261.36,416.93v41.44h-44V416.93c-18.89-11.64-28.07-37.47-11.53-62.91a21.69,21.69,0,0,1,6.26-6.29c33.75-22.24,69.42,1.42,69.42,33.41A42,42,0,0,1,261.36,416.93Zm74.21-180.6H142.42V161.9a80.1,80.1,0,0,1,36.83-67.65c72.47-46,148.5.22,156.32,67.07Z"/></g></g></svg>