<svg xmlns="http://www.w3.org/2000/svg" viewBox="0 0 478.68 833.32"><defs><style>.cls-1{fill:none;}.cls-2{fill:#faa424;}.cls-3{fill:#7d7973;}.cls-4{fill:#545352;}</style></defs><title>PWDMGR</title><g id="Layer_2" data-name="Layer 2"><g id="Object"><path class="cls-1" d="M179.25,94.25a80.1,80.1,0,0,0-36.83,67.65v74.43H335.57v-75C327.75,94.47,251.72,48.23,179.25,94.25Z"/><path class="cls-2" d="M261.36,458.37V416.93a42,42,0,0,0,20.13-35.79c0-32-35.67-55.65-69.42-33.41a21.69,21.69,0,0,0-6.26,6.29c-16.54,25.44-7.36,51.27,11.53,62.91v41.44Z"/><path class="cls-3" d="M52.54,590.77h373.6A52.5,52.5,0,0,0,477,551.18H1.69A52.56,52.56,0,0,0,52.54,590.77Z"/><path class="cls-2" d="M0,538.19a53,53,0,0,0,1.69,13H477a52.5,52.5,0,0,0,1.69-13v-8.36H0Z"/><path class="cls-3" d="M412,172.64c0-124.26-132-218.3-263-149.26C97.9,50.25,66.74,104,66.74,161.68v74.65H32.83A32.82,32.82,0,0,0,0,269.16V529.83H478.68V269.15a32.82,32.82,0,0,0-32.83-32.82h-35V172.64ZM261.36,416.93v41.44h-44V416.93c-18.89-11.64-28.07-37.47-11.53-62.91a21.69,21.69,0,0,1,6.26-6.29c33.75-22.24,69.42,1.42,69.42,33.41A42,42,0,0,1,261.36,416.93Zm74.21-180.6H142.42V161.9a80.1,80.1,0,0,1,36.83-67.65c72.47-46,148.5.22,156.32,67.07Z"/><path class="cls-4" d="M130.59,632.92a30.35,30.35,0,0,1,12.76,43.25,28.5,28.5,0,0,1-12.76,10.65,47.74,47.74,0,0,1-19.54,3.69H94v23.36H74.38v-84.7h36.67A47.08,47.08,0,0,1,130.59,632.92Zm-7.2,37.81q4.59-3.81,4.6-10.83T123.39,649q-4.61-3.81-13.43-3.81H94v29.4h16Q118.78,674.54,123.39,670.73Z"/><path class="cls-4" d="M301.17,629.17l-27.71,84.7h-21l-18.63-57.36-19.24,57.36H193.6l-27.83-84.7H186.1l19.12,59.53,20-59.53h18.14l19.37,60,19.72-60Z"/><path class="cls-4" d="M324.44,629.17h38.48q13.79,0,24.38,5.26a39.39,39.39,0,0,1,16.45,14.82,45.16,45.16,0,0,1,0,44.53A39.39,39.39,0,0,1,387.3,708.6a54.08,54.08,0,0,1-24.38,5.27H324.44ZM362,697.77q12.71,0,20.27-7.08t7.56-19.17q0-12.1-7.56-19.18T362,645.26H344v52.51Z"/><path class="cls-4" d="M151.46,831.87l-.12-50.82-24.93,41.86h-8.83l-24.8-40.78v49.74H74.38v-84.7H90.6l31.7,52.63,31.22-52.63h16.09l.24,84.7Z"/><path class="cls-4" d="M268.61,788.19h17.9v34.36a50.91,50.91,0,0,1-16,8,61.86,61.86,0,0,1-18.27,2.79,49.49,49.49,0,0,1-23.71-5.63A41.82,41.82,0,0,1,212,812.08,45.5,45.5,0,0,1,212,767a41.62,41.62,0,0,1,16.64-15.61,50.45,50.45,0,0,1,23.95-5.63,52.61,52.61,0,0,1,20.21,3.75,40.22,40.22,0,0,1,15.25,10.9L275.5,772a29.11,29.11,0,0,0-21.9-9.56,29.91,29.91,0,0,0-14.4,3.39,24.31,24.31,0,0,0-9.8,9.56,30.05,30.05,0,0,0,0,28.19,24.82,24.82,0,0,0,9.74,9.62,28.9,28.9,0,0,0,14.22,3.45A31.78,31.78,0,0,0,268.61,813Z"/><path class="cls-4" d="M389.42,831.87l-16.34-23.6h-18v23.6h-19.6v-84.7h36.66a47.09,47.09,0,0,1,19.55,3.75,29.05,29.05,0,0,1,12.76,10.64,29.4,29.4,0,0,1,4.48,16.34,27.6,27.6,0,0,1-17.43,26.74l19,27.23Zm-5-64.92q-4.6-3.81-13.43-3.81h-16v29.52h16q8.82,0,13.43-3.87t4.59-10.89Q389.05,770.76,384.46,767Z"/></g></g></svg>